<svg width="24" height="25" viewBox="0 0 24 25" fill="none" xmlns="http://www.w3.org/2000/svg">
<path d="M17.3726 8.84073C20.0986 10.0649 22 12.8291 22 16.043V19.418C22 20.6606 21.0051 21.668 19.7778 21.668H13.1111C10.2084 21.668 7.73898 19.7897 6.82379 17.168M17.3726 8.84073C16.6711 5.87363 14.0344 3.66797 10.8889 3.66797H9.77778C5.48223 3.66797 2 7.19373 2 11.543V14.918C2 16.1606 2.99492 17.168 4.22222 17.168H6.82379M17.3726 8.84073C17.4922 9.34672 17.5556 9.87485 17.5556 10.418C17.5556 14.1459 14.5708 17.168 10.8889 17.168H6.82379" stroke="#D0D0D1" stroke-width="1.5" stroke-linejoin="round"/>
</svg>
