<svg width="24" height="25" viewBox="0 0 24 25" fill="none" xmlns="http://www.w3.org/2000/svg">
<path fill-rule="evenodd" clip-rule="evenodd" d="M3.50083 14.4551V14.2361C3.53295 13.5882 3.7406 12.9605 4.10236 12.4176C4.7045 11.7654 5.1167 10.9663 5.29571 10.1039C5.29571 9.43747 5.29571 8.76147 5.35393 8.095C5.65469 4.88638 8.82728 2.66797 11.9611 2.66797H12.0387C15.1725 2.66797 18.345 4.88638 18.6555 8.095C18.7137 8.76147 18.6555 9.43747 18.704 10.1039C18.8854 10.9683 19.2972 11.7699 19.8974 12.4271C20.2618 12.9652 20.4698 13.5906 20.4989 14.2361V14.4456C20.5206 15.316 20.2208 16.1648 19.6548 16.8354C18.907 17.6194 17.8921 18.1072 16.8024 18.2064C13.607 18.5492 10.383 18.5492 7.18762 18.2064C6.09914 18.103 5.08576 17.6159 4.33521 16.8354C3.778 16.1643 3.48224 15.3206 3.50083 14.4551Z" stroke="#D0D0D1" stroke-width="1.5" stroke-linecap="round" stroke-linejoin="round"/>
<path d="M9.55469 21.5195C10.054 22.1462 10.7871 22.5518 11.592 22.6465C12.3968 22.7412 13.2069 22.5172 13.843 22.0241C14.0387 21.8783 14.2147 21.7088 14.3669 21.5195" stroke="#D0D0D1" stroke-width="1.5" stroke-linecap="round" stroke-linejoin="round"/>
</svg>
